<svg xmlns="http://www.w3.org/2000/svg" width="189.5" height="30" viewBox="0 0 189.5 30"><path fill-rule="evenodd" clip-rule="evenodd" fill="#E86D1F" d="M0 7.7C0 3.5 3.5 0 7.7 0h174c4.3 0 7.7 3.5 7.7 7.7v14.5c0 4.3-3.5 7.7-7.7 7.7H7.7C3.5 30 0 26.5 0 22.3V7.7z"/><g fill="#FFF"><path d="M81.3 6.9h2.3v16.4h-2.3V6.9zM89.9 6.9H92v16.4h-2l-.1-.9c-.2.4-.5.7-.9.9-.3.2-.7.3-1.1.3-.7 0-1.2-.2-1.5-.7-.3-.4-.5-1.2-.5-2.2v-6.3c0-1 .2-1.8.5-2.2.3-.4.8-.6 1.6-.6.4 0 .7.1 1.1.3.3.2.6.5.9.9V6.9zm0 7.8c0-.6-.1-1-.2-1.3s-.4-.4-.7-.4c-.3 0-.6.1-.7.4s-.3.7-.3 1.3v5.6c0 .6.1 1 .2 1.3s.4.3.7.3c.3 0 .6-.1.7-.4.1-.2.2-.7.2-1.3v-5.5zM100.3 15.5v2.7h-4v2.3c0 .7.1 1.1.2 1.4.1.2.4.4.7.4.3 0 .6-.1.7-.4s.2-.7.2-1.3v-1h2.2v.7c0 1.2-.2 2-.7 2.6-.5.5-1.3.8-2.4.8-1.2 0-2-.3-2.4-.8-.5-.6-.7-1.6-.7-3.1v-4.1c0-1.5.2-2.5.7-3.1.5-.6 1.3-.8 2.5-.8 1.1 0 1.9.3 2.4.8.3.4.6 1.4.6 2.9zm-2.2-.8c0-.7-.1-1.1-.2-1.4s-.4-.4-.7-.4c-.3 0-.6.1-.7.4-.1.2-.2.7-.2 1.4v2.1h1.9v-2.1zM108.4 14.4v8.8h-2.2v-8.5c0-.6-.1-1-.2-1.3-.1-.2-.4-.3-.7-.3-.3 0-.6.1-.7.4-.1.2-.2.7-.2 1.2v8.5h-2.1V11.8h2l.1.9c.3-.4.6-.7.9-.9.3-.2.7-.3 1.1-.3.7 0 1.2.2 1.5.6.4.5.5 1.3.5 2.3zM113.1 8.8v3h1.3v1.4h-1.3v7.5c0 .4.1.7.2.9.1.2.4.2.7.2h.5v1.6h-.2c-.5.1-.9.1-1.1.1-.9 0-1.5-.2-1.8-.6-.3-.4-.5-1.3-.5-2.5v-7.1h-1v-1.4h1V9.6l2.2-.8zM116 6.9h2.3V9H116V6.9zm.1 4.9h2.1v11.4h-2.1V11.8zM123 8.8v3h1.3v1.4H123v7.5c0 .4.1.7.2.9.1.2.4.2.7.2h.5v1.6h-.2c-.5.1-.9.1-1.1.1-.9 0-1.5-.2-1.8-.6-.3-.4-.5-1.3-.5-2.5v-7.1h-1v-1.4h1V9.6l2.2-.8zM125.5 11.8h2.1l1.1 7.8h.1l1.1-7.8h1.9l-3.2 15.7h-1.9l1-4.6-2.2-11.1zM143.6 9.8v1.4h-2.3V9.7c0-.5-.1-.9-.2-1.1-.1-.2-.4-.3-.7-.3-.4 0-.6.1-.8.4-.1.2-.2.7-.2 1.4v.8c0 .6.3 1.3.9 2.1l2.1 2.9c.4.6.7 1.1.9 1.5.1.4.2.9.2 1.4v1.1c0 1.3-.3 2.2-.9 2.8-.6.6-1.4.9-2.6.9-1.2 0-2-.2-2.5-.7-.5-.5-.7-1.3-.7-2.6v-1.6h2.3v1.7c0 .6.1 1 .2 1.2s.4.3.8.3.7-.1.8-.4.2-.8.2-1.5v-1c0-.6-.3-1.3-.9-2.2 0 0 0-.1-.1-.1l-2.3-3.1c-.3-.4-.6-.8-.7-1.2s-.2-.8-.2-1.2v-1.1c0-1.2.3-2 .8-2.6.6-.6 1.4-.9 2.5-.9s1.8.2 2.3.7c.9.6 1.1 1.4 1.1 2.5zM151.9 15.5v2.7h-4v2.3c0 .7.1 1.1.2 1.4.1.2.4.4.7.4.3 0 .6-.1.7-.4s.2-.7.2-1.3v-1h2.2v.7c0 1.2-.2 2-.7 2.6-.5.5-1.3.8-2.4.8-1.2 0-2-.3-2.4-.8-.5-.6-.7-1.6-.7-3.1v-4.1c0-1.5.2-2.5.7-3.1.5-.6 1.3-.8 2.5-.8 1.1 0 1.9.3 2.4.8s.6 1.4.6 2.9zm-2.2-.8c0-.7-.1-1.1-.2-1.4s-.4-.4-.7-.4c-.3 0-.6.1-.7.4-.1.2-.2.7-.2 1.4v2.1h1.9v-2.1zM158.2 11.7v1.7h-.1c-.8 0-1.3.2-1.6.5-.3.3-.5.9-.5 1.7v7.7h-2.1V11.8h2l.1.9c.3-.4.6-.7.9-.8s.6-.3 1-.3h.1s.1.1.2.1zM159.2 11.8h2.1l1 9.4h.1l1.2-9.4h1.9l-1.8 11.4h-2.6l-1.9-11.4zM173.1 15.5v2.7h-4v2.3c0 .7.1 1.1.2 1.4.1.2.4.4.7.4.3 0 .6-.1.7-.4s.2-.7.2-1.3v-1h2.2v.7c0 1.2-.2 2-.7 2.6-.5.5-1.3.8-2.4.8-1.2 0-2-.3-2.4-.8-.5-.6-.7-1.6-.7-3.1v-4.1c0-1.5.2-2.5.7-3.1.5-.6 1.3-.8 2.5-.8 1.1 0 1.9.3 2.4.8s.6 1.4.6 2.9zm-2.2-.8c0-.7-.1-1.1-.2-1.4s-.4-.4-.7-.4c-.3 0-.6.1-.7.4-.1.2-.2.7-.2 1.4v2.1h1.9v-2.1zM179.4 11.7v1.7h-.1c-.8 0-1.3.2-1.6.5-.3.3-.5.9-.5 1.7v7.7h-2.1V11.8h2l.1.9c.3-.4.6-.7.9-.8s.6-.3 1-.3h.1s.1.1.2.1z"/></g><path fill-rule="evenodd" clip-rule="evenodd" fill="#FFF" d="M1.9 8c0-3.4 2.8-6.2 6.2-6.2h57.1c3.4 0 6.2 2.8 6.2 6.2v14c0 3.4-2.8 6.2-6.2 6.2H8c-3.4 0-6.2-2.8-6.2-6.2V8z"/><path d="M54.1 7.7c-1.6-1.6-3.5-2.4-5.9-2.4h-.1c-1.5 0-2.8.4-4.1 1.1-1.3.7-2.3 1.7-3 3-.7 1.3-1.1 2.7-1.1 4.2 0 2.3.8 4.2 2.4 5.8 1.6 1.6 3.6 2.4 5.9 2.4 2.3 0 4.3-.8 5.9-2.4 1.6-1.6 2.4-3.6 2.4-5.9 0-2.3-.8-4.2-2.4-5.8zm-2.6 11.7c-1 .6-2.1.9-3.4.9-1.8 0-3.4-.6-4.7-1.9-1.3-1.3-1.9-2.9-1.9-4.7 0-1.3.3-2.4.9-3.4.6-1 1.4-1.8 2.4-2.4 1-.6 2.1-.9 3.3-.9 1.2 0 2.3.3 3.3.9 1.1.6 1.9 1.4 2.4 2.4.6 1 .9 2.1.9 3.4 0 1.3-.3 2.4-.9 3.4-.4.9-1.2 1.7-2.3 2.3z"/><g fill="#F37B20"><path d="M31.8 6.3H30l-4.3 10.9-4.3-11.7-4.6 11.7-3.9-10.9h-1.8l5.6 15.3 4.6-11.7 4.4 11.7 5.5-13.8M38.6 14.3c-.7-.6-1.5-1.1-2.3-1.4l-.4-.2-.4-.2c-.7-.4-1.4-.7-1.8-1.1-.5-.3-.7-.7-.7-1.4 0-.6.2-1.2.7-1.6.5-.4 1.1-.6 1.8-.6.5 0 .8.1 1.2.3.3.2.6.5.9.9l.2.2.2.2 1.3-.8c-.4-.7-.9-1.3-1.6-1.7-.6-.4-1.3-.6-2-.6-1.2 0-2.3.4-3 1.1-.8.7-1.2 1.6-1.2 2.7 0 1 .4 1.8 1.1 2.4.7.6 1.5 1 2.3 1.4l.1.1.3.1c.8.4 1.5.8 2 1.2.6.4.8.9.8 1.7 0 .8-.3 1.6-.8 2.1-.6.6-1.3.8-2.1.8s-1.4-.2-1.9-.7c-.5-.5-.8-1.1-1-2l-1 .3-.6.2c.1.6.3 1.1.6 1.6s.6.9 1 1.2c.8.6 1.8 1 3 1 1.3 0 2.3-.4 3.2-1.3.9-.9 1.3-1.9 1.3-3.2-.1-1.2-.5-2.1-1.2-2.7z"/></g><path fill="#F37B20" d="M51.5 19.4c-1 .6-2.1.9-3.4.9-1.8 0-3.4-.6-4.7-1.9-1.3-1.3-1.9-2.9-1.9-4.7 0-1.3.3-2.4.9-3.4.6-1 1.4-1.8 2.4-2.4 1-.6 2.1-.9 3.3-.9 1.2 0 2.3.3 3.3.9 1.1.6 1.9 1.4 2.4 2.4.6 1 .9 2.1.9 3.4 0 1.3-.3 2.4-.9 3.4-.4.9-1.2 1.7-2.3 2.3z"/><path fill="#FFF" d="M48.2 10.4l2.9 7.1L53 14h1.9v-.4-.5h-2.4l-1.2 2.2-3-7.3-2.7 6h-4c0 .3 0 .7.1 1h4.5l2-4.6z"/><g><path d="M62 24.1h-5.5l3-3.2c.9-1 1.6-1.8 1.9-2.4.3-.6.5-1.2.5-1.9 0-1-.3-1.8-1-2.5S59.3 13 58.2 13c-.4 0-.8.1-1.2.2v1.2c.3-.2.7-.2 1.1-.2.7 0 1.4.2 1.9.7.5.5.8 1.1.8 1.8 0 .5-.1 1-.4 1.5-.3.5-.9 1.2-1.8 2.2l-4.6 5h8c0-.2-.1-.4-.1-.6.1-.3.1-.5.1-.7z"/></g></svg>